<svg id="Laag_1" data-name="Laag 1" xmlns="http://www.w3.org/2000/svg" viewBox="0 0 31 43.2"><defs><style>.cls-1{fill:#e30613;}</style></defs><title>logo1</title><g id="olyv85.tif"><path class="cls-1" d="M22.76,45.9s-7.69-1.55-10.11-4.48a10.07,10.07,0,0,1-1.86-9.2c.86-2.67,2.36-4.17,3.3-6,.74-1.41,2.09-6.27,1-7.8-1.52-2.16,2.73,1.74,3.49,3.28.64,1.3.43,7.16.43,7.16s.72-.09,1.71-2.34c1.24-2.83-.58-6.36-1-8.38s0-7.59,1-9.5C22,6.38,24.35,3.86,25.65,3.28L27,2.7a13.78,13.78,0,0,0-1.59,7.95c.54,5,6,11.19,6.79,12.14.6.74-.72-3.47,2.6-6.07s4-2.6,4-2.6-1.73,3-1.59,5.2,3,8.67,3,8.67,1.59,4.48,1,6.79-1.44,5.63-3.32,7.08a39.4,39.4,0,0,1-6.36,3.32S34,43.86,34,42.36a7.58,7.58,0,0,0-1.25-4.24A9.12,9.12,0,0,1,31.87,34a2.59,2.59,0,0,1,.06-1,3.92,3.92,0,0,0-1.34,1.48,10.32,10.32,0,0,0-.18,3.94s-1.75-1-1.57-2.24.94-3.54.94-4.3a7.82,7.82,0,0,0-.67-3.27A12.17,12.17,0,0,0,26.65,26a10.26,10.26,0,0,1,.45,3.58c-.27,1.12-2.64,5.55-3.49,6l-.4.27a6.44,6.44,0,0,0,0-1.93c-.18-.4-1.57-2.11-1.93-2.11L21,31.57s.49,3-.18,4.34-1.66,3.58-1.66,4.88a5.17,5.17,0,0,0,2.69,4.34Z" transform="translate(-10.38 -2.7)"/></g></svg>